<svg width="26" height="25" viewBox="0 0 26 25" fill="none" xmlns="http://www.w3.org/2000/svg">
<path d="M4.2 16.3L11.3 16.3L10.2 17.4C8.6 19 8.6 21.5 10.2 23.1C11.8 24.7 14.3 24.7 15.9 23.1L24.2 14.8C24.2 14.8 24.2 14.8 24.3 14.7C25.1 13.9 25.5 12.9 25.5 11.8C25.5 10.8 25.1 9.70005 24.3 8.90005C24.3 8.90005 24.3 8.90005 24.2 8.80005L16.5 1.20005C14.9 -0.399953 12.4 -0.399953 10.8 1.20005C9.2 2.80005 9.2 5.30005 10.8 6.90005L11.9 8.00005L4.2 8.00005C1.9 8.00005 1.25889e-06 9.90005 1.05782e-06 12.2C8.56743e-07 14.5 1.8 16.3 4.2 16.3Z" fill="white"/>
</svg>
